<svg width="66" height="63" viewBox="0 0 66 63" fill="none" xmlns="http://www.w3.org/2000/svg">
<path d="M33 36.5425C31.7497 36.5425 30.5506 36.0113 29.6665 35.0656C28.7824 34.12 28.2857 32.8374 28.2857 31.5C28.2857 30.1626 28.7824 28.88 29.6665 27.9344C30.5506 26.9887 31.7497 26.4575 33 26.4575C34.2503 26.4575 35.4494 26.9887 36.3335 27.9344C37.2176 28.88 37.7143 30.1626 37.7143 31.5C37.7143 32.8374 37.2176 34.12 36.3335 35.0656C35.4494 36.0113 34.2503 36.5425 33 36.5425ZM31.3406 46.6074C31.8906 47.3134 32.4437 47.9992 33 48.6547C33.5563 47.9992 34.1094 47.3167 34.6594 46.6074C33.5533 46.6325 32.4467 46.6325 31.3406 46.6074V46.6074ZM25.0706 46.1872C22.657 45.9186 20.2595 45.5056 17.8891 44.9501C17.6534 46.1267 17.4743 47.2697 17.3549 48.3656C16.7577 53.6871 17.5906 56.9211 18.8571 57.701C20.1237 58.4843 23.1566 57.6371 27.17 54.4267C27.9966 53.7645 28.8294 53.0283 29.6654 52.2248C28.0296 50.3057 26.4955 48.29 25.0706 46.1872V46.1872ZM48.1109 44.9501C45.8574 45.488 43.45 45.9048 40.9294 46.1872C39.5045 48.29 37.9704 50.3057 36.3346 52.2248C37.1706 53.0316 38.0034 53.7645 38.83 54.4267C42.8434 57.6371 45.8763 58.4843 47.1429 57.701C48.4094 56.9211 49.2391 53.6871 48.6483 48.3656C48.5186 47.219 48.3403 46.0794 48.114 44.9501H48.1109ZM52.668 43.6491C54.4814 52.5206 53.5291 59.5835 49.5 62.0712C45.4709 64.5588 39.2763 61.9098 33 55.7949C26.7237 61.9098 20.5291 64.5555 16.5 62.0678C12.4709 59.5802 11.5186 52.5206 13.3289 43.6458C5.23914 40.8926 0 36.4753 0 31.5C0 26.5247 5.23914 22.1108 13.3289 19.3509C11.5186 10.4794 12.4709 3.41646 16.5 0.928808C20.5291 -1.55884 26.7237 1.09017 33 7.20508C39.2763 1.09017 45.4709 -1.55548 49.5 0.932171C53.5291 3.41982 54.4814 10.4794 52.6711 19.3542C60.7609 22.1074 66 26.5247 66 31.5C66 36.4753 60.7609 40.8892 52.6711 43.6491H52.668ZM29.6623 10.7752C28.863 10.0014 28.0314 9.26663 27.17 8.57329C23.1566 5.36287 20.1237 4.51573 18.8571 5.299C17.5906 6.07891 16.7609 9.31286 17.3517 14.6344C17.4774 15.7337 17.6534 16.8733 17.886 18.0499C20.2574 17.4943 22.656 17.0813 25.0706 16.8128C26.5634 14.6176 28.1034 12.5972 29.6654 10.7752H29.6623ZM40.9294 16.8128C43.45 17.0952 45.8574 17.5154 48.1109 18.0499C48.3466 16.8733 48.5257 15.7303 48.6451 14.6344C49.2423 9.31286 48.4094 6.07891 47.1429 5.299C45.8763 4.51573 42.8434 5.36287 38.83 8.57329C37.9675 9.26655 37.1348 10.0013 36.3346 10.7752C37.8966 12.5972 39.4366 14.6176 40.9294 16.8128V16.8128ZM34.6594 16.3926C34.1094 15.6866 33.5563 15.0008 33 14.3453C32.4437 15.0008 31.8906 15.6833 31.3406 16.3926C32.4467 16.3675 33.5533 16.3675 34.6594 16.3926V16.3926ZM21.5977 40.59C21.0243 39.5785 20.4711 38.554 19.9383 37.5174C19.6397 38.3814 19.3631 39.2319 19.1117 40.0757C19.9194 40.2639 20.7491 40.4354 21.5946 40.59H21.5977ZM27.6697 41.3766C31.2183 41.6586 34.7816 41.6586 38.3303 41.3766C40.3329 38.2299 42.1146 34.9287 43.6606 31.5C42.1146 28.0713 40.3329 24.7701 38.3303 21.6234C34.7816 21.3414 31.2183 21.3414 27.6697 21.6234C25.6671 24.7701 23.8854 28.0713 22.3394 31.5C23.8854 34.9287 25.6671 38.2299 27.6697 41.3766V41.3766ZM46.0617 25.4826C46.3603 24.6186 46.6369 23.7681 46.8883 22.9243C46.0644 22.7331 45.2365 22.5616 44.4054 22.41C44.9778 23.4216 45.53 24.446 46.0617 25.4826ZM14.5514 24.2287C13.4829 24.5985 12.4709 25.0019 11.5217 25.4389C6.91743 27.55 4.71429 29.9368 4.71429 31.5C4.71429 33.0632 6.91429 35.45 11.5217 37.5611C12.4709 37.9981 13.4829 38.4015 14.5514 38.7713C15.2491 36.4181 16.1134 33.9776 17.1443 31.5C16.1537 29.1299 15.2881 26.7023 14.5514 24.2287V24.2287ZM19.1086 22.9243C19.3631 23.7648 19.6397 24.6186 19.9383 25.4792C20.4711 24.4437 21.0244 23.4204 21.5977 22.41C20.7491 22.5646 19.9194 22.7361 19.1117 22.9243H19.1086ZM51.4486 38.7713C52.5171 38.4015 53.5291 37.9981 54.4783 37.5611C59.0826 35.45 61.2857 33.0632 61.2857 31.5C61.2857 29.9368 59.0857 27.55 54.4783 25.4389C53.486 24.9867 52.475 24.5829 51.4486 24.2287C50.7509 26.5818 49.8866 29.0224 48.8557 31.5C49.8866 33.9776 50.7509 36.4148 51.4486 38.7713V38.7713ZM46.8914 40.0757C46.6369 39.2352 46.3603 38.3814 46.0617 37.5208C45.5289 38.5563 44.9756 39.5796 44.4023 40.59C45.2509 40.4354 46.0806 40.2639 46.8883 40.0757H46.8914Z" fill="white"/>
</svg>
